<svg height="56.66666793823242" version="1.1" width="227.02084350585938" xmlns="http://www.w3.org/2000/svg" xmlns:xlink="http://www.w3.org/1999/xlink" style="overflow: hidden; position: relative; left: -0.666687px; top: -0.125px;" viewBox="188.9895782470703 265.37333206176754 227.02084350585938 56.66666793823242" preserveAspectRatio="xMinYMin" id="main_svg"><desc style="-webkit-tap-highlight-color: rgba(0, 0, 0, 0);">Created with Logotizer</desc><defs style="-webkit-tap-highlight-color: rgba(0, 0, 0, 0);"></defs><path fill="#333333" stroke="none" d="M-109.99,-37.5L-107.89,-37.5L-107.89,-19.78Q-107.3,-20.58,-106.55,-21.33Q-102.78,-25.1,-97.46,-25.1Q-92.11,-25.1,-88.35,-21.33Q-84.59,-17.55,-84.59,-12.21Q-84.59,-6.89,-88.35,-3.12Q-92.11,0.66,-97.46,0.66Q-102.78,0.66,-106.55,-3.12Q-107.3,-3.87,-107.89,-4.66L-107.89,0L-109.99,0L-109.99,-37.5M-107.89,-14.41L-107.89,-10.01Q-107.28,-7.01,-104.98,-4.71Q-101.86,-1.59,-97.46,-1.59Q-93.05,-1.59,-89.93,-4.7Q-86.82,-7.8,-86.82,-12.21Q-86.82,-16.62,-89.93,-19.73Q-93.05,-22.85,-97.46,-22.85Q-101.86,-22.85,-104.98,-19.73Q-107.28,-17.44,-107.89,-14.41ZM-53.3,0L-55.41,0L-55.41,-4.69Q-56.02,-3.87,-56.74,-3.12Q-60.52,0.66,-65.86,0.66Q-71.18,0.66,-74.96,-3.12Q-78.73,-6.89,-78.73,-12.21Q-78.73,-17.55,-74.96,-21.33Q-71.18,-25.1,-65.86,-25.1Q-60.52,-25.1,-56.74,-21.33Q-56.02,-20.58,-55.41,-19.76L-55.41,-23.02L-53.3,-23.02L-53.3,0M-55.41,-10.13L-55.41,-14.3Q-55.99,-17.39,-58.34,-19.73Q-61.46,-22.85,-65.86,-22.85Q-70.27,-22.85,-73.39,-19.73Q-76.5,-16.62,-76.5,-12.21Q-76.5,-7.8,-73.39,-4.7Q-70.27,-1.59,-65.86,-1.59Q-61.46,-1.59,-58.34,-4.71Q-55.99,-7.05,-55.41,-10.13ZM-35.04,-23.02L-40.71,-15.98L-31.67,0L-34.29,0L-42.1,-14.3L-44.16,-11.74L-44.16,0L-46.27,0L-46.27,-32.81L-44.16,-32.81L-44.16,-15.12L-37.76,-23.02L-35.04,-23.02ZM-23.7,-23.02L-23.7,-32.81L-21.59,-32.81L-21.59,-23.02L-16.9,-23.02L-16.9,-20.91L-21.59,-20.91L-21.59,0L-23.7,0L-23.7,-20.91L-28.39,-20.91L-28.39,-23.02L-23.7,-23.02ZM-3,-2.06L-8.21,8.79L-10.27,8.79L-4.06,-4.24L-13.03,-23.02L-10.64,-23.02L-3,-6.52L4.64,-23.02L7.01,-23.02L-3,-2.04L-3,-2.06ZM12.28,-37.5L14.39,-37.5L14.39,-19.78Q14.97,-20.58,15.72,-21.33Q19.5,-25.1,24.82,-25.1Q30.16,-25.1,33.92,-21.33Q37.68,-17.55,37.68,-12.21Q37.68,-6.89,33.92,-3.12Q30.16,0.66,24.82,0.66Q19.5,0.66,15.72,-3.12Q14.97,-3.87,14.39,-4.66L14.39,0L12.28,0L12.28,-37.5M14.39,-14.41L14.39,-10.01Q15,-7.01,17.29,-4.71Q20.41,-1.59,24.82,-1.59Q29.22,-1.59,32.34,-4.7Q35.46,-7.8,35.46,-12.21Q35.46,-16.62,32.34,-19.73Q29.22,-22.85,24.82,-22.85Q20.41,-22.85,17.29,-19.73Q15,-17.44,14.39,-14.41ZM68.97,0L66.86,0L66.86,-4.69Q66.26,-3.87,65.53,-3.12Q61.76,0.66,56.41,0.66Q51.09,0.66,47.32,-3.12Q43.54,-6.89,43.54,-12.21Q43.54,-17.55,47.32,-21.33Q51.09,-25.1,56.41,-25.1Q61.76,-25.1,65.53,-21.33Q66.26,-20.58,66.86,-19.76L66.86,-23.02L68.97,-23.02L68.97,0M66.86,-10.13L66.86,-14.3Q66.28,-17.39,63.93,-19.73Q60.82,-22.85,56.41,-22.85Q52.01,-22.85,48.89,-19.73Q45.77,-16.62,45.77,-12.21Q45.77,-7.8,48.89,-4.7Q52.01,-1.59,56.41,-1.59Q60.82,-1.59,63.93,-4.71Q66.28,-7.05,66.86,-10.13ZM78.11,-37.5L78.11,0L76.01,0L76.01,-37.5L78.11,-37.5ZM109.99,0L107.88,0L107.88,-4.69Q107.27,-3.87,106.54,-3.12Q102.77,0.66,97.43,0.66Q92.11,0.66,88.33,-3.12Q84.56,-6.89,84.56,-12.21Q84.56,-17.55,88.33,-21.33Q92.11,-25.1,97.43,-25.1Q102.77,-25.1,106.54,-21.33Q107.27,-20.58,107.88,-19.76L107.88,-23.02L109.99,-23.02L109.99,0M107.88,-10.13L107.88,-14.3Q107.29,-17.39,104.95,-19.73Q101.83,-22.85,97.43,-22.85Q93.02,-22.85,89.9,-19.73Q86.79,-16.62,86.79,-12.21Q86.79,-7.8,89.9,-4.7Q93.02,-1.59,97.43,-1.59Q101.83,-1.59,104.95,-4.71Q107.29,-7.05,107.88,-10.13Z" transform="matrix(1,0,0,1,302.5,312.04)" style="-webkit-tap-highlight-color: rgba(0, 0, 0, 0);" stroke-width="1"></path></svg>